<svg width="1060" height="192" viewBox="0 0 1060 192" fill="none" xmlns="http://www.w3.org/2000/svg">
  <path
    d="M260.597 134.335L324.605 56.9212H265.335V40.6925H348.998V55.51L285.394 132.42H350.913V148.648H260.597V134.335ZM406.462 136.956C418.49 136.956 426.722 132.42 431.158 123.348C435.66 114.209 437.911 104.062 437.911 92.9065C437.911 82.8266 436.298 74.6282 433.073 68.3115C427.966 58.366 419.162 53.3932 406.663 53.3932C395.575 53.3932 387.512 57.6268 382.472 66.0939C377.432 74.561 374.912 84.7753 374.912 96.7369C374.912 108.228 377.432 117.804 382.472 125.465C387.512 133.125 395.508 136.956 406.462 136.956ZM407.167 37.5677C421.078 37.5677 432.838 42.2045 442.447 51.478C452.057 60.7515 456.861 74.393 456.861 92.4025C456.861 109.807 452.628 124.188 444.161 135.545C435.694 146.901 422.556 152.58 404.748 152.58C389.897 152.58 378.104 147.573 369.368 137.561C360.632 127.481 356.264 113.974 356.264 97.0392C356.264 78.8954 360.867 64.4475 370.073 53.6956C379.28 42.9437 391.644 37.5677 407.167 37.5677ZM481.767 95.9305C481.767 107.489 484.22 117.165 489.125 124.961C494.031 132.756 501.893 136.653 512.712 136.653C521.112 136.653 528 133.058 533.376 125.868C538.819 118.61 541.541 108.228 541.541 94.7209C541.541 81.0794 538.752 70.9995 533.174 64.4811C527.597 57.8956 520.709 54.6028 512.511 54.6028C503.371 54.6028 495.946 58.0972 490.234 65.0859C484.589 72.0746 481.767 82.3562 481.767 95.9305ZM509.083 38.7773C517.349 38.7773 524.27 40.5245 529.848 44.0189C533.074 46.0349 536.736 49.5628 540.835 54.6028V0.0704234H558.273V148.648H541.944V133.629C537.71 140.282 532.704 145.087 526.925 148.044C521.146 151 514.527 152.479 507.067 152.479C495.039 152.479 484.623 147.439 475.82 137.359C467.017 127.212 462.615 113.738 462.615 96.9385C462.615 81.2138 466.613 67.6059 474.61 56.1148C482.674 44.5565 494.165 38.7773 509.083 38.7773ZM576.929 41.1965H595.376V148.648H576.929V41.1965ZM576.929 0.574419H595.376V21.1375H576.929V0.574419ZM628.547 119.921C628.547 125.162 630.462 129.295 634.292 132.319C638.123 135.343 642.658 136.855 647.9 136.855C654.284 136.855 660.466 135.377 666.447 132.42C676.527 127.514 681.567 119.484 681.567 108.329V93.7129C679.349 95.1241 676.493 96.3001 672.999 97.2408C669.505 98.1816 666.077 98.8536 662.718 99.2568L651.73 100.668C645.145 101.542 640.206 102.919 636.913 104.801C631.335 107.959 628.547 112.999 628.547 119.921ZM672.495 83.2298C676.661 82.6922 679.45 80.945 680.861 77.9882C681.668 76.3754 682.071 74.057 682.071 71.0331C682.071 64.8507 679.853 60.3819 675.418 57.6268C671.05 54.8044 664.767 53.3932 656.569 53.3932C647.094 53.3932 640.374 55.9468 636.409 61.0539C634.191 63.8763 632.747 68.0763 632.075 73.6538H615.14C615.476 60.3483 619.777 51.1084 628.043 45.9341C636.375 40.6925 646.018 38.0717 656.972 38.0717C669.673 38.0717 679.988 40.4909 687.917 45.3293C695.78 50.1676 699.711 57.694 699.711 67.9083V130.101C699.711 131.983 700.08 133.495 700.82 134.637C701.626 135.78 703.272 136.351 705.759 136.351C706.565 136.351 707.472 136.317 708.48 136.25C709.488 136.116 710.564 135.948 711.706 135.746V149.152C708.884 149.959 706.733 150.463 705.255 150.664C703.776 150.866 701.76 150.967 699.207 150.967C692.957 150.967 688.421 148.749 685.599 144.314C684.121 141.962 683.079 138.636 682.474 134.335C678.778 139.173 673.469 143.373 666.548 146.935C659.626 150.496 651.999 152.277 643.666 152.277C633.654 152.277 625.455 149.253 619.071 143.205C612.755 137.09 609.596 129.463 609.596 120.324C609.596 110.311 612.721 102.55 618.971 97.0392C625.22 91.5289 633.419 88.1353 643.566 86.8585L672.495 83.2298ZM762.92 37.5677C775.083 37.5677 784.961 40.5245 792.555 46.4381C800.216 52.3516 804.819 62.5323 806.364 76.9802H788.725C787.649 70.3275 785.197 64.8171 781.366 60.4491C777.536 56.014 771.387 53.7964 762.92 53.7964C751.362 53.7964 743.096 59.4411 738.123 70.7307C734.898 78.0554 733.285 87.0937 733.285 97.8456C733.285 108.665 735.57 117.77 740.139 125.162C744.709 132.554 751.899 136.25 761.71 136.25C769.237 136.25 775.184 133.965 779.552 129.396C783.987 124.759 787.045 118.442 788.725 110.446H806.364C804.348 124.759 799.308 135.242 791.245 141.895C783.181 148.48 772.865 151.773 760.299 151.773C746.187 151.773 734.931 146.632 726.531 136.351C718.132 126.002 713.932 113.1 713.932 97.644C713.932 78.6938 718.535 63.9435 727.741 53.3932C736.947 42.8429 748.674 37.5677 762.92 37.5677ZM908.289 136.956C920.317 136.956 928.549 132.42 932.984 123.348C937.487 114.209 939.738 104.062 939.738 92.9065C939.738 82.8266 938.125 74.6282 934.9 68.3115C929.792 58.366 920.989 53.3932 908.49 53.3932C897.402 53.3932 889.338 57.6268 884.298 66.0939C879.258 74.561 876.738 84.7753 876.738 96.7369C876.738 108.228 879.258 117.804 884.298 125.465C889.338 133.125 897.335 136.956 908.289 136.956ZM908.994 37.5677C922.904 37.5677 934.664 42.2045 944.274 51.478C953.883 60.7515 958.688 74.393 958.688 92.4025C958.688 109.807 954.455 124.188 945.987 135.545C937.52 146.901 924.383 152.58 906.575 152.58C891.724 152.58 879.93 147.573 871.194 137.561C862.458 127.481 858.091 113.974 858.091 97.0392C858.091 78.8954 862.694 64.4475 871.9 53.6956C881.106 42.9437 893.471 37.5677 908.994 37.5677ZM982.888 114.78C983.426 120.828 984.938 125.465 987.424 128.69C991.994 134.537 999.923 137.46 1011.21 137.46C1017.93 137.46 1023.85 136.015 1028.95 133.125C1034.06 130.169 1036.61 125.633 1036.61 119.517C1036.61 114.881 1034.56 111.353 1030.47 108.934C1027.84 107.455 1022.67 105.742 1014.94 103.793L1000.53 100.164C991.322 97.8792 984.534 95.3257 980.166 92.5033C972.371 87.5977 968.474 80.8106 968.474 72.1418C968.474 61.9275 972.136 53.662 979.461 47.3452C986.853 41.0285 996.765 37.8701 1009.2 37.8701C1025.46 37.8701 1037.19 42.6413 1044.38 52.1836C1048.88 58.2316 1051.06 64.7499 1050.93 71.7387H1033.79C1033.46 67.6395 1032.01 63.9099 1029.46 60.5499C1025.29 55.7788 1018.07 53.3932 1007.79 53.3932C1000.93 53.3932 995.723 54.7036 992.162 57.3244C988.667 59.9451 986.92 63.4059 986.92 67.7067C986.92 72.4106 989.238 76.1738 993.875 78.9962C996.563 80.6762 1000.53 82.1546 1005.77 83.4314L1017.76 86.3545C1030.8 89.5129 1039.54 92.5705 1043.97 95.5273C1051.03 100.164 1054.56 107.455 1054.56 117.401C1054.56 127.01 1050.89 135.309 1043.57 142.298C1036.31 149.287 1025.22 152.781 1010.31 152.781C994.245 152.781 982.854 149.152 976.134 141.895C969.482 134.57 965.92 125.532 965.45 114.78H982.888Z"
    fill="white" />
  <path
    d="M112.325 72.7102C100.04 89.3862 100.954 90.2832 117.639 77.9932C138.891 62.3392 163.21 49.4582 177.404 58.5932C178.482 59.2872 179.701 59.6852 178.821 57.1672C176.253 49.8192 172.63 32.7672 183.682 11.9822C187.381 5.02621 185.345 2.98821 178.384 6.68421C157.635 17.6992 140.604 14.1292 133.216 11.5642C130.658 10.6762 131.061 11.9172 131.762 13.0152C140.825 27.2082 127.959 51.4902 112.325 72.7102Z"
    fill="#DEA336" />
  <path
    d="M76.7337 72.7102C89.0187 89.3862 88.1047 90.2832 71.4197 77.9932C50.1677 62.3392 25.8487 49.4582 11.6547 58.5932C10.5767 59.2872 9.35771 59.6852 10.2377 57.1672C12.8057 49.8192 16.4287 32.7672 5.3767 11.9822C1.6777 5.02621 3.71371 2.98821 10.6747 6.68421C31.4237 17.6992 48.4547 14.1292 55.8427 11.5642C58.4007 10.6762 57.9977 11.9172 57.2967 13.0152C48.2337 27.2082 61.0997 51.4902 76.7337 72.7102Z"
    fill="#27734B" />
  <path
    d="M112.325 118.93C100.04 102.254 100.954 101.357 117.639 113.647C138.891 129.301 163.21 142.182 177.404 133.047C178.482 132.353 179.701 131.955 178.821 134.473C176.253 141.821 172.63 158.873 183.682 179.658C187.381 186.614 185.345 188.652 178.384 184.956C157.635 173.941 140.604 177.511 133.216 180.076C130.658 180.964 131.061 179.723 131.762 178.625C140.825 164.432 127.959 140.15 112.325 118.93Z"
    fill="#E36574" />
  <path
    d="M76.7337 118.93C89.0187 102.254 88.1047 101.357 71.4197 113.647C50.1677 129.301 25.8487 142.182 11.6547 133.047C10.5767 132.353 9.35771 131.955 10.2377 134.473C12.8057 141.821 16.4287 158.873 5.3767 179.658C1.6777 186.614 3.71371 188.652 10.6747 184.956C31.4237 173.941 48.4547 177.511 55.8427 180.076C58.4007 180.964 57.9977 179.723 57.2967 178.625C48.2337 164.432 61.0997 140.15 76.7337 118.93Z"
    fill="#4044A2" />
</svg>
  