<svg width="27" height="20" viewBox="0 0 27 20" fill="none" xmlns="http://www.w3.org/2000/svg">
<g filter="url(#filter0_d_248_10213)">
<path d="M10.9264 8.00007C10.9264 9.65692 9.58361 11 7.92676 11C6.2699 11 4.92676 9.65685 4.92676 8C4.92676 6.34315 6.2699 5 7.92676 5C9.58361 5 10.9264 6.34321 10.9264 8.00007Z" fill="#B4B08F"/>
<path d="M10.9264 8.00007L19.4999 8.00007M10.9264 8.00007C10.9264 9.65692 9.58361 11 7.92676 11C6.2699 11 4.92676 9.65685 4.92676 8C4.92676 6.34315 6.2699 5 7.92676 5C9.58361 5 10.9264 6.34321 10.9264 8.00007Z" stroke="white" stroke-width="1.5" stroke-linecap="round" stroke-linejoin="round"/>
</g>
<path d="M16 4.5L19.5 8L16 11.5" stroke="white" stroke-width="1.5" stroke-linecap="round" stroke-linejoin="round"/>
<defs>
<filter id="filter0_d_248_10213" x="0.176758" y="4.25" width="24.0732" height="15.5" filterUnits="userSpaceOnUse" color-interpolation-filters="sRGB">
<feFlood flood-opacity="0" result="BackgroundImageFix"/>
<feColorMatrix in="SourceAlpha" type="matrix" values="0 0 0 0 0 0 0 0 0 0 0 0 0 0 0 0 0 0 127 0" result="hardAlpha"/>
<feOffset dy="4"/>
<feGaussianBlur stdDeviation="2"/>
<feComposite in2="hardAlpha" operator="out"/>
<feColorMatrix type="matrix" values="0 0 0 0 0 0 0 0 0 0 0 0 0 0 0 0 0 0 0.25 0"/>
<feBlend mode="normal" in2="BackgroundImageFix" result="effect1_dropShadow_248_10213"/>
<feBlend mode="normal" in="SourceGraphic" in2="effect1_dropShadow_248_10213" result="shape"/>
</filter>
</defs>
</svg>
