<svg width="244" height="251" viewBox="0 0 244 251" fill="none" xmlns="http://www.w3.org/2000/svg">
  <path fill-rule="evenodd" clip-rule="evenodd"
    d="M68.2942 216.091C97.2998 222.667 138.596 204.587 170.766 168.542C179.977 158.222 187.639 147.326 193.655 136.37L107.542 139.423L68.2942 216.091Z"
    fill="#E36574" />
  <path fill-rule="evenodd" clip-rule="evenodd"
    d="M49.2661 206.51C54.6294 211.297 61.0818 214.456 68.2942 216.091L107.542 139.423L38.4998 141.871C30.772 168.517 33.8463 192.747 49.2661 206.51Z"
    fill="#4044A2" />
  <path fill-rule="evenodd" clip-rule="evenodd"
    d="M38.5018 141.871L107.544 139.423L162.219 32.62C134.784 33.0576 100.687 50.7345 73.2352 81.4924C56.0637 100.732 44.2717 121.975 38.5018 141.871Z"
    fill="#27734B" />
  <path fill-rule="evenodd" clip-rule="evenodd"
    d="M162.219 32.62L107.544 139.423L193.657 136.37C213.878 99.5459 215.492 62.0512 194.735 43.5249C186.208 35.9144 174.928 32.4173 162.219 32.62Z"
    fill="#DEA336" />
  <path
    d="M144.871 75.3555C152.653 52.4674 151.033 52.5341 135.417 75.6915C115.527 105.187 90.3157 135.089 67.4875 139.795C65.7537 140.152 63.9815 140.852 66.3476 142.054C73.2523 145.562 86.2507 155.627 82.0672 180.644C80.6667 189.016 84.2957 188.898 91.5079 180.332C113.006 154.802 136.797 143.498 147.612 139.372C151.356 137.944 150.23 137.326 148.787 137.064C130.139 133.67 134.967 104.481 144.871 75.3555Z"
    fill="white" />
</svg>