<svg width="16" height="17" viewBox="0 0 16 17" fill="none" xmlns="http://www.w3.org/2000/svg">
<path fill-rule="evenodd" clip-rule="evenodd" d="M6.96111 2.03104C3.97093 2.03104 1.54691 4.45506 1.54691 7.44524C1.54691 10.4354 3.97093 12.8594 6.96111 12.8594C8.40328 12.8594 9.71232 12.2966 10.6833 11.3771C11.7263 10.3893 12.3753 8.99368 12.3753 7.44524C12.3753 4.45506 9.95129 2.03104 6.96111 2.03104ZM0 7.44524C0 3.60073 3.1166 0.484131 6.96111 0.484131C10.8056 0.484131 13.9222 3.60073 13.9222 7.44524C13.9222 9.14187 13.3145 10.6975 12.3063 11.9049L16 15.3908L14.9383 16.5158L11.188 12.9765C10.0163 13.873 8.55039 14.4064 6.96111 14.4064C3.1166 14.4064 0 11.2898 0 7.44524Z" fill="#B7B499"/>
</svg>
