<svg version="1.1" xmlns="http://www.w3.org/2000/svg" viewBox="0 0 1034 636" width="2068" height="1272">
  <!-- svg-source:excalidraw -->
  
  <defs>
    <style>
      @font-face {
        font-family: "Virgil";
        src: url("https://excalidraw.com/Virgil.woff2");
      }
      @font-face {
        font-family: "Cascadia";
        src: url("https://excalidraw.com/Cascadia.woff2");
      }
    </style>
  </defs>
  <g stroke-linecap="round" transform="translate(148 386) rotate(0 88 31.5)"><path d="M-0.36 0.88 C54.74 -0.67, 105.33 -1.94, 177.01 -0.1 M0.06 -0.2 C49.49 0.05, 100.92 1.03, 176.03 -0.55 M174.2 -1.51 C177.37 16.63, 177.23 35.99, 177.87 64.56 M175.19 0.54 C175.02 19.46, 175.68 39.8, 175.2 63.14 M176.36 62.26 C106.6 64.98, 38.41 64.03, -0.09 62.11 M175.22 63.49 C125.94 62.57, 75.6 63.44, 0.01 63.06 M-0.42 63.59 C1.47 39.59, 0.41 18.71, -1.79 1.11 M0.34 62.09 C1.23 47.49, 0.74 33.78, 0.82 -0.4" stroke="#000000" stroke-width="1" fill="none"></path></g><g stroke-linecap="round" transform="translate(65 280) rotate(0 165.5 137)"><path d="M0.05 0.85 C96.45 1.9, 194.26 2.47, 330.23 -0.58 M0.64 -0.55 C111.27 -1.02, 222.68 -1.04, 331.38 -0.47 M330.77 -0.79 C333.86 91.6, 332.92 182.89, 329.59 275.42 M331.2 0.27 C331.17 109.78, 332.32 218.8, 330.44 274.32 M331.61 274.35 C236.13 273.23, 142.96 273.8, 0.58 274.77 M331.02 274.17 C256.22 273.6, 182.43 273.38, 0.19 274.67 M1.5 275.07 C-0.32 217.96, -0.48 163.15, 0.81 0.67 M-0.71 273.93 C2.25 217.94, 2.74 162.17, 0.73 -0.12" stroke="#000000" stroke-width="1" fill="none"></path></g><g transform="translate(168.5 515.5) rotate(0 59 12.5)"><text x="59" y="18" font-family="Virgil, Segoe UI Emoji" font-size="20px" fill="#000000" text-anchor="middle" style="white-space: pre;" direction="ltr">Dapp iframe</text></g><g transform="translate(152.5 405) rotate(0 83.5 12.5)"><text x="83.5" y="18" font-family="Virgil, Segoe UI Emoji" font-size="20px" fill="#000000" text-anchor="middle" style="white-space: pre;" direction="ltr">Injected provider</text></g><g stroke-linecap="round" transform="translate(513 73) rotate(0 88.5 32.5)"><path d="M1.16 0.5 C70.03 -1.54, 139.18 1.41, 176.02 -1.44 M0.02 0.45 C60.58 -0.37, 120.06 0.68, 176.82 0.43 M176.65 0.06 C177.02 21.45, 176.48 45.83, 176.35 65.57 M176.34 0.96 C177.07 26.17, 176.4 51.92, 177.84 65.52 M175.35 63.18 C116.11 63.9, 54.58 65.15, -1.27 66.89 M177.79 64.62 C126.5 65.71, 75.4 64.42, 0.77 65.01 M-1.92 65.84 C0.1 44.79, 1.06 24.97, -0.1 -1.2 M-0.59 65.68 C-0.54 44.29, 0.1 22.42, 0.21 -0.02" stroke="#000000" stroke-width="1" fill="none"></path></g><g transform="translate(531.5 81.5) rotate(0 68 25)"><text x="68" y="18" font-family="Virgil, Segoe UI Emoji" font-size="20px" fill="#000000" text-anchor="middle" style="white-space: pre;" direction="ltr">WalletConnect</text><text x="68" y="43" font-family="Virgil, Segoe UI Emoji" font-size="20px" fill="#000000" text-anchor="middle" style="white-space: pre;" direction="ltr">Provider</text></g><g stroke-linecap="round" transform="translate(10 10) rotate(0 386.5 308)"><path d="M0.33 -0.11 C305.06 2.24, 610.31 2.43, 772.85 -0.48 M0.23 -0.3 C299.11 -1.38, 597.74 -1.21, 772.66 -0.01 M773.78 -0.76 C772.5 168.47, 772.97 338.54, 773.24 616.02 M773.17 -0.39 C774.68 196.68, 774.7 393.98, 773.12 615.8 M772.87 615.4 C470.15 619.56, 166.94 618.78, 0.51 615.22 M773.09 616.27 C591.19 615.64, 409.03 616.13, 0.16 616.3 M0.18 616.61 C0.62 369.51, 0.67 123.93, 0.21 0.48 M-0.18 615.89 C-0.3 468.92, -0.81 321.58, -0.25 -0.25" stroke="#000000" stroke-width="1" fill="none"></path></g><g transform="translate(258 589) rotate(0 137.5 12.5)"><text x="0" y="18" font-family="Virgil, Segoe UI Emoji" font-size="20px" fill="#000000" text-anchor="start" style="white-space: pre;" direction="ltr">Zodiac Pilot extension page</text></g><g stroke-linecap="round" transform="translate(829 65) rotate(0 97.5 42.5)"><path d="M87.21 -0.01 C100.42 -1.58, 116.15 -0.34, 129.47 1.75 C142.79 3.84, 157.06 7.96, 167.11 12.5 C177.16 17.04, 185.28 23.19, 189.76 29 C194.24 34.81, 195.71 41.27, 194 47.36 C192.28 53.44, 187.43 60.1, 179.49 65.51 C171.55 70.92, 158.65 76.47, 146.34 79.82 C134.03 83.18, 119.8 85.34, 105.63 85.64 C91.46 85.94, 74.64 83.93, 61.31 81.63 C47.97 79.33, 35.08 76.54, 25.63 71.83 C16.18 67.12, 8.59 59.38, 4.59 53.37 C0.59 47.35, -0.6 41.64, 1.6 35.76 C3.81 29.89, 9.56 23.39, 17.83 18.11 C26.1 12.84, 37.96 7.28, 51.25 4.1 C64.54 0.92, 88.16 -0.4, 97.58 -0.97 C107.01 -1.53, 107.77 -0.25, 107.8 0.71 M63.25 2.96 C75.53 0.33, 92.35 -0.99, 106.52 -0.39 C120.68 0.2, 135.9 3.25, 148.24 6.53 C160.59 9.82, 173.03 13.9, 180.57 19.3 C188.12 24.71, 192.28 32.79, 193.52 38.97 C194.75 45.15, 192.39 50.76, 187.98 56.4 C183.58 62.04, 176.8 68.15, 167.08 72.79 C157.36 77.44, 143.5 82.35, 129.65 84.25 C115.81 86.16, 98.43 85.32, 84.02 84.23 C69.6 83.13, 54.88 80.89, 43.14 77.7 C31.4 74.5, 20.86 70.24, 13.59 65.05 C6.32 59.86, 0.59 52.97, -0.47 46.56 C-1.54 40.16, 1.77 32.43, 7.21 26.63 C12.64 20.84, 22.66 15.61, 32.14 11.8 C41.63 7.99, 58.87 5, 64.14 3.76 C69.4 2.52, 63.5 4.12, 63.74 4.36" stroke="#000000" stroke-width="1" fill="none"></path></g><g transform="translate(888 95) rotate(0 38.5 12.5)"><text x="38.5" y="18" font-family="Virgil, Segoe UI Emoji" font-size="20px" fill="#000000" text-anchor="middle" style="white-space: pre;" direction="ltr">Network</text></g><g stroke-linecap="round"><g transform="translate(691 104.53235371187407) rotate(0 68.71005483572799 0.45156615264528455)"><path d="M-0.38 0.37 C22.59 0.8, 114.8 1.49, 137.8 1.39 M1.63 -0.48 C24.5 -0.31, 114.65 -0.61, 137.24 -0.45" stroke="#000000" stroke-width="1" fill="none"></path></g><g transform="translate(691 104.53235371187407) rotate(0 68.71005483572799 0.45156615264528455)"><path d="M109.64 11 C118.51 7.7, 124.29 3.25, 138.6 -2.05 M109.65 10.31 C116.94 6.8, 127.66 3.34, 138.08 0.44" stroke="#000000" stroke-width="1" fill="none"></path></g><g transform="translate(691 104.53235371187407) rotate(0 68.71005483572799 0.45156615264528455)"><path d="M109.67 -9.52 C118.33 -6.66, 124.1 -4.94, 138.6 -2.05 M109.68 -10.21 C117.1 -7.2, 127.82 -4.16, 138.08 0.44" stroke="#000000" stroke-width="1" fill="none"></path></g></g><g stroke-linecap="round" transform="translate(427.5 281) rotate(0 165.5 137)"><path d="M0.4 -0.81 C108.94 1.55, 216.24 2.63, 329.01 -1.15 M-0.82 0.41 C108.59 -1.58, 220.16 -1.89, 332.15 1.34 M330.82 1.28 C326.04 104.12, 323.76 212.18, 331.28 271.56 M330.81 -1.27 C329.65 89.78, 328.45 180.44, 330.77 275.38 M330.6 274.05 C260.36 275.85, 190.65 276.78, -0.13 271.42 M331.4 273.75 C262.76 276.9, 195.44 275.33, 1.26 274.81 M1.21 276.4 C-3.26 212.79, -2.84 153.37, 1.98 -1.55 M-1.04 274.48 C4.4 190.3, 4.67 108.37, -0.84 -0.66" stroke="#000000" stroke-width="1" fill="none"></path></g><g transform="translate(520 491.5) rotate(0 76 25)"><text x="76" y="18" font-family="Virgil, Segoe UI Emoji" font-size="20px" fill="#000000" text-anchor="middle" style="white-space: pre;" direction="ltr">Ganache iframe</text><text x="76" y="43" font-family="Virgil, Segoe UI Emoji" font-size="20px" fill="#000000" text-anchor="middle" style="white-space: pre;" direction="ltr">(invisible)</text></g><g stroke-linecap="round" transform="translate(511 305.5) rotate(0 88 31.5)"><path d="M-1.58 -1.1 C53.88 -1.9, 104.76 -0.52, 175.3 1.8 M0.72 -0.54 C58.48 2.16, 118.61 1.84, 176.54 0.98 M174.22 -1.89 C173.82 17.45, 176.69 37.19, 176.53 64.69 M175.89 -0.79 C175.52 17.53, 175.05 36.7, 175.44 62.09 M174.07 62.9 C134.88 60.95, 93.31 64.47, 1.5 64.34 M176.47 63.33 C124.8 64.93, 74.56 64.38, 0.04 62.28 M1.4 62.77 C-0.63 49.74, -1.52 36.77, 1.92 -1.24 M0.51 62.88 C-1.09 49.82, -0.87 35.01, 0.2 0.87" stroke="#000000" stroke-width="1" fill="none"></path></g><g transform="translate(515 324.5) rotate(0 84 12.5)"><text x="84" y="18" font-family="Virgil, Segoe UI Emoji" font-size="20px" fill="#000000" text-anchor="middle" style="white-space: pre;" direction="ltr">Ganache provider</text></g><g stroke-linecap="round"><g transform="translate(595.6688805301296 301) rotate(0 -1.598529168917537 -80.05020643094088)"><path d="M0.58 -0.95 C0.2 -27.67, -2.53 -134.75, -3.3 -161.27 M-0.58 1.17 C-0.95 -25.36, -3.07 -133.68, -3.77 -160.33" stroke="#000000" stroke-width="1" fill="none"></path></g><g transform="translate(595.6688805301296 301) rotate(0 -1.598529168917537 -80.05020643094088)"><path d="M5.53 -130.86 C3.11 -138.1, 2.79 -143.37, -4.65 -161.5 M7.53 -132.57 C3.81 -140.23, -0.47 -148.82, -3.08 -159.69" stroke="#000000" stroke-width="1" fill="none"></path></g><g transform="translate(595.6688805301296 301) rotate(0 -1.598529168917537 -80.05020643094088)"><path d="M-14.98 -130.4 C-13 -137.84, -8.93 -143.21, -4.65 -161.5 M-12.99 -132.11 C-10.31 -140.06, -8.18 -148.79, -3.08 -159.69" stroke="#000000" stroke-width="1" fill="none"></path></g></g><g stroke-linecap="round" transform="translate(231 152.5) rotate(0 88 31.5)"><path d="M-0.54 0.26 C64.05 1.17, 131.75 -1.65, 174.1 0.94 M-0.46 0.14 C54.56 -2.33, 110.06 -2.17, 176.53 0.88 M174.06 -0.11 C176.1 20.67, 174.67 44.32, 176.14 61.36 M176.44 0.63 C176.4 16.99, 176.12 34.78, 176.76 62.18 M177.6 61.08 C105.73 62.73, 37 63.88, 1.3 64.08 M176.32 63.72 C134.18 65.51, 93.36 64.07, -0.14 62.66 M-1.93 62.29 C-1.29 51.44, -1.37 36.18, -0.54 0.49 M0.05 62.38 C0.27 43.12, -0.96 22.5, 0.71 0.35" stroke="#000000" stroke-width="1" fill="none"></path></g><g transform="translate(256 171.5) rotate(0 63 12.5)"><text x="63" y="18" font-family="Virgil, Segoe UI Emoji" font-size="20px" fill="#000000" text-anchor="middle" style="white-space: pre;" direction="ltr">Fork provider</text></g><g stroke-linecap="round" transform="translate(86 73.5) rotate(0 88 31.5)"><path d="M-0.91 1.01 C55.47 0.91, 115.78 -1, 176.31 1.5 M-0.69 0.33 C57.58 -1.61, 114.64 -1.06, 176.46 0.71 M177.76 1.17 C175.74 18.29, 176.79 33.79, 175.42 63.51 M176.25 -0.73 C176.09 15.54, 175.66 32.5, 175.98 63.41 M177.33 64.17 C109.21 64.45, 40.05 64.44, -1.25 63.84 M175.03 63.1 C111.88 62.96, 49.06 63.12, -0.09 62.37 M-1.13 63.42 C-1.52 45.97, 1.12 26.17, 0.17 -0.72 M-0.66 63.1 C-0.28 43.68, -0.29 23.34, -0.93 -0.86" stroke="#000000" stroke-width="1" fill="none"></path></g><g transform="translate(91 92.5) rotate(0 83 12.5)"><text x="83" y="18" font-family="Virgil, Segoe UI Emoji" font-size="20px" fill="#000000" text-anchor="middle" style="white-space: pre;" direction="ltr">Wrapping provider</text></g><g stroke-linecap="round"><g transform="translate(261.9470333725774 104.42978704111363) rotate(0 124.56701699456664 -0.8368065557394573)"><path d="M-0.04 -0.47 C41.77 -0.43, 208.97 -1.23, 250.66 -0.97 M-1.53 -1.76 C40.21 -1.49, 208.21 -0.11, 250.03 0.08" stroke="#000000" stroke-width="1" fill="none"></path></g><g transform="translate(261.9470333725774 104.42978704111363) rotate(0 124.56701699456664 -0.8368065557394573)"><path d="M221 11.17 C228.26 7.46, 239.65 2.54, 252.02 -1.29 M222.26 10.1 C229.02 7.88, 236.91 4.53, 249.59 0.04" stroke="#000000" stroke-width="1" fill="none"></path></g><g transform="translate(261.9470333725774 104.42978704111363) rotate(0 124.56701699456664 -0.8368065557394573)"><path d="M221.13 -9.35 C228.15 -7.3, 239.5 -6.47, 252.02 -1.29 M222.4 -10.42 C229.18 -6.94, 237.03 -4.58, 249.59 0.04" stroke="#000000" stroke-width="1" fill="none"></path></g></g><g stroke-linecap="round"><g transform="translate(408 184.67002672715262) rotate(0 67.29840533507763 60.147860331399556)"><path d="M0.98 1 C23.43 20.82, 112.25 100.27, 134.56 119.81 M0.04 0.49 C22.31 19.87, 111.15 98.2, 133.49 117.94" stroke="#000000" stroke-width="1" fill="none"></path></g><g transform="translate(408 184.67002672715262) rotate(0 67.29840533507763 60.147860331399556)"><path d="M107.23 106.6 C114.59 110.01, 120.1 113.33, 132.89 116.44 M105.85 106.62 C114.96 109.88, 122.4 112.91, 134.27 118.48" stroke="#000000" stroke-width="1" fill="none"></path></g><g transform="translate(408 184.67002672715262) rotate(0 67.29840533507763 60.147860331399556)"><path d="M120.81 91.21 C124.32 99.22, 125.86 107.04, 132.89 116.44 M119.43 91.23 C124.4 99.43, 127.6 107.26, 134.27 118.48" stroke="#000000" stroke-width="1" fill="none"></path></g></g><g stroke-linecap="round" transform="translate(540.5 403.5) rotate(0 59 35)"><path d="M77.13 0.81 C87.09 2.23, 96.92 7.46, 103.8 12.36 C110.67 17.26, 117.03 23.91, 118.38 30.2 C119.73 36.49, 116.46 44.45, 111.9 50.08 C107.34 55.7, 99.53 60.69, 91 63.95 C82.46 67.22, 71.28 69.63, 60.69 69.68 C50.1 69.73, 36.67 67.5, 27.46 64.26 C18.26 61.01, 9.94 55.77, 5.45 50.22 C0.96 44.67, -0.79 37.14, 0.52 30.94 C1.82 24.74, 6.74 17.8, 13.28 13.03 C19.82 8.27, 30.01 4.18, 39.76 2.33 C49.52 0.48, 65.04 1.85, 71.81 1.92 C78.57 1.99, 78.28 2.34, 80.35 2.76 C82.42 3.17, 84.66 4.07, 84.24 4.42 M53.16 1.28 C62.76 -0.15, 75.05 0.15, 84.67 2.64 C94.29 5.13, 105.31 10.81, 110.89 16.21 C116.47 21.61, 118.42 28.79, 118.14 35.03 C117.86 41.27, 115.08 48.53, 109.19 53.63 C103.3 58.73, 92.58 62.85, 82.79 65.64 C72.99 68.43, 60.62 71.17, 50.4 70.37 C40.19 69.56, 29.38 65.26, 21.5 60.81 C13.61 56.36, 6.24 49.57, 3.07 43.65 C-0.09 37.73, -0.24 31.07, 2.5 25.28 C5.24 19.5, 11.77 13.06, 19.51 8.96 C27.24 4.85, 43.33 2.05, 48.91 0.68 C54.48 -0.69, 51.98 0.75, 52.96 0.75 C53.93 0.74, 54.85 0.25, 54.78 0.64" stroke="#000000" stroke-width="1" fill="none"></path></g><g transform="translate(581.5 425.5) rotate(0 20.5 12.5)"><text x="20.5" y="18" font-family="Virgil, Segoe UI Emoji" font-size="20px" fill="#000000" text-anchor="middle" style="white-space: pre;" direction="ltr">Fork</text></g><g stroke-linecap="round"><g transform="translate(596.8055205227695 365.34926097460584) rotate(0 -0.06398851941690964 19.37026749388309)"><path d="M0.14 0.03 C0.33 6.56, 1.23 32.22, 1.12 38.65 M-1.25 -1 C-1.12 5.71, 0.8 33, 0.76 39.74" stroke="#000000" stroke-width="1" fill="none"></path></g><g transform="translate(596.8055205227695 365.34926097460584) rotate(0 -0.06398851941690964 19.37026749388309)"><path d="M-6.63 23.3 C-5.94 26.08, -3.83 32.76, -0.32 37.97 M-6.14 22.25 C-4.63 27.83, -0.52 36.35, 1.58 40.05" stroke="#000000" stroke-width="1" fill="none"></path></g><g transform="translate(596.8055205227695 365.34926097460584) rotate(0 -0.06398851941690964 19.37026749388309)"><path d="M6.87 22.79 C3.55 25.74, 1.65 32.57, -0.32 37.97 M7.36 21.74 C3.48 27.56, 2.19 36.29, 1.58 40.05" stroke="#000000" stroke-width="1" fill="none"></path></g></g><g stroke-linecap="round"><g transform="translate(229 386) rotate(0 -0.5705921973008685 -59.981551844626665)"><path d="M-1.12 0.7 C-1.2 -19.59, -0.75 -100.4, -0.45 -120.66 M0.49 0.02 C0.21 -19.6, -1.59 -99.47, -1.63 -119.47" stroke="#000000" stroke-width="1" fill="none"></path></g></g><g stroke-linecap="round"><g transform="translate(229 262) rotate(0 44.774228817969515 -22.560168438134724)"><path d="M-0.6 -0.55 C8.43 -2.28, 39.71 -2.74, 54.83 -10.15 C69.95 -17.57, 84.13 -39.23, 90.14 -45.05 M1.29 1.77 C10.6 -0.3, 42.24 -3.72, 56.93 -11.83 C71.62 -19.94, 83.67 -41, 89.45 -46.89" stroke="#000000" stroke-width="1" fill="none"></path></g><g transform="translate(229 262) rotate(0 44.774228817969515 -22.560168438134724)"><path d="M80.91 -25.66 C85.95 -31.75, 88.85 -38.8, 90.99 -47.45 M82.6 -23.47 C85.33 -32.35, 88.07 -41.31, 90.24 -47.37" stroke="#000000" stroke-width="1" fill="none"></path></g><g transform="translate(229 262) rotate(0 44.774228817969515 -22.560168438134724)"><path d="M67.79 -35.98 C77.55 -38.31, 85.17 -41.65, 90.99 -47.45 M69.48 -33.79 C77.02 -39.01, 84.52 -44.22, 90.24 -47.37" stroke="#000000" stroke-width="1" fill="none"></path></g></g><g stroke-linecap="round"><g transform="translate(227 262.5) rotate(0 -29.83751915887467 -63.321166985481966)"><path d="M0.85 0.1 C-7.98 -5.46, -43.48 -12.18, -53.65 -33.32 C-63.83 -54.46, -58.99 -111.16, -60.19 -126.74 M-0.16 -0.89 C-8.54 -6.8, -41.22 -14.27, -51.28 -35.09 C-61.34 -55.91, -58.99 -110.64, -60.53 -125.81" stroke="#000000" stroke-width="1" fill="none"></path></g><g transform="translate(227 262.5) rotate(0 -29.83751915887467 -63.321166985481966)"><path d="M-49.13 -99.08 C-50.94 -103.41, -56.07 -111.36, -61.89 -126.77 M-49.33 -98.99 C-51.48 -105.48, -55.51 -114.38, -59.66 -125.5" stroke="#000000" stroke-width="1" fill="none"></path></g><g transform="translate(227 262.5) rotate(0 -29.83751915887467 -63.321166985481966)"><path d="M-69.64 -98.37 C-66.4 -103.02, -66.49 -111.15, -61.89 -126.77 M-69.84 -98.28 C-66.13 -105.18, -64.29 -114.28, -59.66 -125.5" stroke="#000000" stroke-width="1" fill="none"></path></g></g></svg>