<svg width="176" height="186" viewBox="0 0 176 186" fill="none" xmlns="http://www.w3.org/2000/svg">
  <path fill-rule="evenodd" clip-rule="evenodd"
    d="M34.2942 184.091C63.2998 190.667 104.596 172.587 136.766 136.542C145.977 126.222 153.639 115.326 159.655 104.37L73.5421 107.423L34.2942 184.091Z"
    fill="#E36574" />
  <path fill-rule="evenodd" clip-rule="evenodd"
    d="M15.2661 174.51C20.6294 179.297 27.0818 182.456 34.2942 184.091L73.5421 107.423L4.49981 109.871C-3.22795 136.517 -0.153668 160.747 15.2661 174.51Z"
    fill="#4044A2" />
  <path fill-rule="evenodd" clip-rule="evenodd"
    d="M4.50177 109.871L73.5441 107.423L128.219 0.620033C100.784 1.05764 66.6872 18.7345 39.2352 49.4924C22.0637 68.7318 10.2717 89.975 4.50177 109.871Z"
    fill="#27734B" />
  <path fill-rule="evenodd" clip-rule="evenodd"
    d="M128.219 0.620033L73.5441 107.423L159.657 104.37C179.878 67.5459 181.492 30.0512 160.735 11.5249C152.208 3.91443 140.928 0.417302 128.219 0.620033Z"
    fill="#DEA336" />
</svg>